<?xml version="1.0" standalone="no"?><!DOCTYPE svg PUBLIC "-//W3C//DTD SVG 1.1//EN" "http://www.w3.org/Graphics/SVG/1.1/DTD/svg11.dtd"><svg t="1666629044293" class="icon" viewBox="0 0 1024 1024" version="1.1" xmlns="http://www.w3.org/2000/svg" p-id="2540" xmlns:xlink="http://www.w3.org/1999/xlink" width="200" height="200"><path d="M910.4 249.6H745.6c-21.6-31.2-40.8-64.8-58.4-98.4-5.6-12.8-12.8-24-22.4-33.6-1.6-1.6-2.4-2.4-4-3.2-14.4-8-31.2-11.2-48-11.2H416.8c-16.8 0-32.8 4-47.2 11.2-1.6 0.8-2.4 1.6-3.2 2.4-9.6 9.6-17.6 20-23.2 32.8-20 36.8-48.8 82.4-60 99.2H128.8c-40 0-72.8 37.6-72.8 83.2v504c0 45.6 32.8 83.2 72.8 83.2h781.6c40 0 73.6-37.6 73.6-83.2v-504c0-44.8-32.8-82.4-73.6-82.4zM371.2 164.8s0-0.8 0.8-0.8c3.2-8 8.8-15.2 14.4-21.6 9.6-4.8 20-7.2 30.4-6.4h196c10.4 0 20.8 2.4 30.4 6.4 5.6 6.4 10.4 14.4 14.4 22.4 0 0 0 0.8 0.8 0.8 15.2 28.8 31.2 56.8 48.8 84H320.8c14.4-21.6 35.2-55.2 50.4-84.8zM128.8 281.6H909.6c22.4 0 41.6 23.2 41.6 51.2v69.6H100c-4.8 0-9.6 2.4-12.8 6.4v-75.2c0.8-28.8 19.2-52 41.6-52z m781.6 606.4H128.8c-22.4 0-40.8-23.2-40.8-51.2V428c3.2 4 7.2 6.4 12.8 6.4H952v403.2c0 27.2-18.4 50.4-41.6 50.4z" fill="#27B1BD" p-id="2541"></path><path d="M653.6 610.4H526.4V516.8c0-8.8-7.2-16-16-16s-16 7.2-16 16v93.6H396c-8.8 0-16 7.2-16 16s7.2 16 16 16h98.4v131.2c0 8.8 7.2 16 16 16s16-7.2 16-16V642.4h127.2c8.8 0 16-7.2 16-16s-7.2-16-16-16z" fill="#27B1BD" p-id="2542"></path></svg>