<?xml version="1.0" standalone="no"?><!DOCTYPE svg PUBLIC "-//W3C//DTD SVG 1.1//EN" "http://www.w3.org/Graphics/SVG/1.1/DTD/svg11.dtd"><svg t="1666707572526" class="icon" viewBox="0 0 1024 1024" version="1.1" xmlns="http://www.w3.org/2000/svg" p-id="1198" data-spm-anchor-id="a313x.7781069.0.i12" xmlns:xlink="http://www.w3.org/1999/xlink" width="200" height="200"><path d="M262.826667 42.666667c121.173333 0 220.16 98.986667 220.16 218.453333v218.453333H262.826667c-121.173333 0-220.16-98.986667-220.16-218.453333S141.653333 42.666667 262.826667 42.666667zM761.173333 110.933333c83.626667 0 151.893333 68.266667 151.893334 150.186667s-68.266667 150.186667-151.893334 150.186667h-151.893333v-150.186667c1.706667-81.92 69.973333-150.186667 151.893333-150.186667m0-68.266666c-121.173333 0-220.16 98.986667-220.16 218.453333v218.453333h220.16c121.173333 0 220.16-98.986667 220.16-218.453333 0-119.466667-98.986667-218.453333-220.16-218.453333zM761.173333 981.333333c-121.173333 0-220.16-98.986667-220.16-218.453333V544.426667h220.16c121.173333 0 220.16 98.986667 220.16 218.453333s-98.986667 218.453333-220.16 218.453333zM42.666667 762.88c0-121.173333 98.986667-218.453333 220.16-218.453333h220.16v218.453333c0 121.173333-98.986667 218.453333-220.16 218.453333S42.666667 882.346667 42.666667 762.88z" fill="#00a4d9" p-id="1199"></path></svg>